<?xml version="1.0" encoding="iso-8859-1"?>
<!-- Generator: Adobe Illustrator 16.0.0, SVG Export Plug-In . SVG Version: 6.00 Build 0)  -->
<!DOCTYPE svg PUBLIC "-//W3C//DTD SVG 1.1//EN" "http://www.w3.org/Graphics/SVG/1.1/DTD/svg11.dtd">
<svg version="1.1" id="Capa_1" xmlns="http://www.w3.org/2000/svg" xmlns:xlink="http://www.w3.org/1999/xlink" x="0px" y="0px"
	 width="354.986px" height="354.986px" viewBox="0 0 354.986 354.986" style="enable-background:new 0 0 354.986 354.986;"
	 xml:space="preserve">
<g>
	<path d="M350.605,55.238H4.382C1.966,55.238,0,57.204,0,59.62v235.745c0,2.417,1.966,4.383,4.382,4.383h148.137
		c1.174,0,2.276-0.458,3.105-1.29c0.827-0.831,1.281-1.936,1.277-3.109c-0.004-0.874-0.41-103.571-0.41-105.163
		c0-11.562,9.408-20.983,21.028-21c11.565,0.016,20.976,9.437,20.976,21c0,1.289-0.289,74.381-0.385,98.397l-0.026,6.767
		c-0.005,1.173,0.448,2.276,1.277,3.109c0.815,0.819,1.948,1.289,3.104,1.289h148.14c2.416,0,4.382-1.966,4.382-4.383V59.62
		C354.986,57.204,353.021,55.238,350.605,55.238z M8.765,83.8V64.003h5.371V83.8H8.765z M22.9,83.8V64.003h6.376V83.8H22.9z
		 M38.041,83.8V64.003h6.376V83.8H38.041z M53.181,83.8V64.003h6.377V83.8H53.181z M68.322,83.8V64.003h6.375V83.8H68.322z
		 M83.462,83.8V64.003h6.377V83.8H83.462z M98.603,83.8V64.003h6.376V83.8H98.603z M113.743,83.8V64.003h6.376V83.8H113.743z
		 M144.024,83.8V64.003h6.376V83.8H144.024z M159.165,83.8V64.003h6.375V83.8H159.165z M174.305,83.8V64.003h6.376V83.8H174.305z
		 M189.446,83.8V64.003h6.375V83.8H189.446z M204.586,83.8V64.003h6.376V83.8H204.586z M234.868,83.8V64.003h6.376V83.8H234.868z
		 M250.009,83.8V64.003h6.377V83.8H250.009z M265.149,83.8V64.003h6.377V83.8H265.149z M280.291,83.8V64.003h6.376V83.8H280.291z
		 M295.433,83.8V64.003h6.377V83.8H295.433z M310.573,83.8V64.003h6.376V83.8H310.573z M325.714,83.8V64.003h6.377V83.8H325.714z
		 M128.884,83.8V64.003h6.375V83.8H128.884z M148.119,290.983H8.765V92.564h118.329c0.187,28.947,7.176,50.318,20.781,63.528
		c3.979,3.864,8.465,6.946,13.357,9.179c-8.377,5.483-13.505,14.857-13.505,24.915C147.728,191.518,148.034,269.5,148.119,290.983z
		 M177.435,160.421c-1.295-0.012-12.947-0.414-23.455-10.617c-11.85-11.505-17.945-30.759-18.121-57.239h83.271
		c-0.176,26.382-6.229,45.597-17.997,57.119c-10.488,10.27-22.242,10.72-23.542,10.737l-0.067-0.003l-0.029,1L177.435,160.421z
		 M219.728,83.8V64.003h6.377V83.8H219.728z M193.754,165.271c4.893-2.231,9.378-5.312,13.359-9.179
		c13.604-13.209,20.593-34.58,20.779-63.528h118.328v198.419H206.865c0.077-19.187,0.395-99.396,0.395-100.798
		C207.26,180.129,202.132,170.755,193.754,165.271z M346.222,64.003V83.8h-5.366V64.003H346.222z"/>
</g>
<g>
</g>
<g>
</g>
<g>
</g>
<g>
</g>
<g>
</g>
<g>
</g>
<g>
</g>
<g>
</g>
<g>
</g>
<g>
</g>
<g>
</g>
<g>
</g>
<g>
</g>
<g>
</g>
<g>
</g>
</svg>
