<?xml version="1.0" encoding="iso-8859-1"?>
<!-- Generator: Adobe Illustrator 16.0.0, SVG Export Plug-In . SVG Version: 6.00 Build 0)  -->
<!DOCTYPE svg PUBLIC "-//W3C//DTD SVG 1.1//EN" "http://www.w3.org/Graphics/SVG/1.1/DTD/svg11.dtd">
<svg version="1.1" id="Capa_1" xmlns="http://www.w3.org/2000/svg" xmlns:xlink="http://www.w3.org/1999/xlink" x="0px" y="0px"
	 width="341.563px" height="341.562px" viewBox="0 0 341.563 341.562" style="enable-background:new 0 0 341.563 341.562;"
	 xml:space="preserve">
<g>
	<path d="M308.509,278.76h-7.161V152.051c0-71.313-122.732-148.076-127.957-151.31c-1.598-0.988-3.619-0.988-5.218,0
		c-5.224,3.233-127.956,79.996-127.956,151.31V278.76h-7.162c-7.595,0-13.773,6.178-13.773,13.771v35.258
		c0,7.596,6.178,13.773,13.773,13.773h224.15h19.32h31.983c7.595,0,13.772-6.18,13.772-13.773v-35.258
		C322.282,284.938,316.103,278.76,308.509,278.76z M50.133,152.051c0-52.499,77.646-111.667,109.684-133.847l-10.652,24.229
		c-1.102,2.506,0.037,5.432,2.543,6.535c0.649,0.285,1.326,0.42,1.993,0.42c1.907,0,3.725-1.106,4.542-2.964l12.539-28.522
		l12.54,28.523c0.816,1.856,2.634,2.964,4.54,2.964c0.667,0,1.344-0.135,1.994-0.42c2.506-1.104,3.646-4.028,2.543-6.535
		l-10.652-24.23c32.038,22.178,109.686,81.348,109.686,133.847v126.708H50.133V152.051z M262.163,331.646v-20.98h9.404v20.98
		H262.163z M312.366,327.79c0,2.126-1.73,3.856-3.855,3.856h-27.026v-25.938c0-2.737-2.22-4.958-4.958-4.958h-19.32
		c-2.738,0-4.958,2.221-4.958,4.958v25.938H33.055c-2.126,0-3.856-1.73-3.856-3.856v-35.258c0-2.126,1.73-3.856,3.856-3.856h12.12
		H296.39h12.119c2.126,0,3.856,1.73,3.856,3.856V327.79L312.366,327.79z"/>
</g>
<g>
</g>
<g>
</g>
<g>
</g>
<g>
</g>
<g>
</g>
<g>
</g>
<g>
</g>
<g>
</g>
<g>
</g>
<g>
</g>
<g>
</g>
<g>
</g>
<g>
</g>
<g>
</g>
<g>
</g>
</svg>
