<?xml version="1.0" encoding="iso-8859-1"?>
<!-- Generator: Adobe Illustrator 16.0.0, SVG Export Plug-In . SVG Version: 6.00 Build 0)  -->
<!DOCTYPE svg PUBLIC "-//W3C//DTD SVG 1.1//EN" "http://www.w3.org/Graphics/SVG/1.1/DTD/svg11.dtd">
<svg version="1.1" id="Capa_1" xmlns="http://www.w3.org/2000/svg" xmlns:xlink="http://www.w3.org/1999/xlink" x="0px" y="0px"
	 width="374.117px" height="374.117px" viewBox="0 0 374.117 374.117" style="enable-background:new 0 0 374.117 374.117;"
	 xml:space="preserve">
<g>
	<g>
		<path d="M186.969,63.059c-7.903,0-14.334,6.431-14.334,14.334s6.431,14.333,14.334,14.333c7.902,0,14.333-6.43,14.333-14.333
			S194.873,63.059,186.969,63.059z M186.969,83.726c-3.492,0-6.334-2.841-6.334-6.333s2.842-6.334,6.334-6.334
			c3.492,0,6.333,2.842,6.333,6.334S190.462,83.726,186.969,83.726z"/>
		<path d="M370.719,282.938V58.893c0-2.206-1.793-4-4-4H7.219c-2.206,0-4,1.794-4,4v224.076C1.386,283.332,0,284.953,0,286.893
			v28.332c0,2.206,1.794,4,4,4h162c2.206,0,4-1.794,4-4v-28.332c0-2.132-1.677-3.88-3.781-3.994v-79.756
			c0-11.441,9.309-20.75,20.75-20.75c11.441,0,20.75,9.309,20.75,20.75v79.77c-2.02,0.201-3.602,1.909-3.602,3.98v28.332
			c0,2.206,1.793,4,4,4h162c2.205,0,4-1.794,4-4v-28.332C374.117,284.892,372.641,283.229,370.719,282.938z M73.136,95.893v-33
			h12.666v33H73.136z M288.137,95.893v-33h12.666v33H288.137z M366.117,290.893v20.332h-154v-20.332H366.117z M93.802,92.559V62.893
			h120.667v29.666H93.802z M222.469,92.559V62.893h57.668v29.666H222.469z M186.969,174.393c-15.853,0-28.75,12.896-28.75,28.75
			v79.75h-147V148.649c25.697-1.952,46.138-22.394,48.09-48.091h5.883c0.317,1.89,1.966,3.334,3.944,3.334h20.666
			c1.979,0,3.627-1.444,3.944-3.334h89.223v44.25c0,2.206,1.794,4,4,4c2.207,0,4-1.794,4-4v-44.25h89.223
			c0.318,1.89,1.967,3.334,3.945,3.334h20.666c1.979,0,3.627-1.444,3.943-3.334h5.883c1.951,25.698,22.393,46.14,48.09,48.091
			v134.243h-147v-79.75C215.719,187.289,202.822,174.393,186.969,174.393z M11.219,140.618v-40.059h40.058
			C49.367,121.748,32.409,138.707,11.219,140.618z M322.66,100.559h40.061v40.059C341.529,138.707,324.57,121.748,322.66,100.559z
			 M308.803,92.559V62.893h53.916v29.666H308.803z M11.219,92.559V62.893h53.917v29.666H11.219z M162.001,290.893v20.332h-154
			v-20.332H162.001z"/>
	</g>
</g>
<g>
</g>
<g>
</g>
<g>
</g>
<g>
</g>
<g>
</g>
<g>
</g>
<g>
</g>
<g>
</g>
<g>
</g>
<g>
</g>
<g>
</g>
<g>
</g>
<g>
</g>
<g>
</g>
<g>
</g>
</svg>
