<?xml version="1.0" encoding="iso-8859-1"?>
<!-- Generator: Adobe Illustrator 16.0.0, SVG Export Plug-In . SVG Version: 6.00 Build 0)  -->
<!DOCTYPE svg PUBLIC "-//W3C//DTD SVG 1.1//EN" "http://www.w3.org/Graphics/SVG/1.1/DTD/svg11.dtd">
<svg version="1.1" id="Capa_1" xmlns="http://www.w3.org/2000/svg" xmlns:xlink="http://www.w3.org/1999/xlink" x="0px" y="0px"
	 width="541.322px" height="541.321px" viewBox="0 0 541.322 541.321" style="enable-background:new 0 0 541.322 541.321;"
	 xml:space="preserve">
<g>
	<g>
		<path d="M436.708,198.096c-0.01-0.009-0.02-0.015-0.029-0.023c-0.182-0.167-0.373-0.319-0.582-0.452
			c-0.062-0.04-0.133-0.072-0.195-0.108c-0.164-0.092-0.33-0.181-0.506-0.251c-0.027-0.01-0.049-0.027-0.076-0.037
			c-0.154-0.057-15.547-6.118-30.811-32.599C390.261,139.908,373.281,92,373.281,4.132c0-2.281-1.852-4.132-4.133-4.132h-82.645
			h-31.68h-82.645c-2.282,0-4.133,1.851-4.133,4.132c0,87.868-16.983,135.776-31.228,160.494
			c-15.208,26.384-30.546,32.496-30.81,32.599c-0.027,0.01-0.051,0.028-0.08,0.038c-0.141,0.056-0.272,0.129-0.406,0.198
			c-0.109,0.059-0.224,0.11-0.327,0.177c-0.108,0.071-0.206,0.157-0.309,0.237c-0.109,0.087-0.222,0.168-0.319,0.264
			c-0.089,0.087-0.163,0.185-0.244,0.278c-0.092,0.107-0.187,0.207-0.266,0.322c-0.075,0.107-0.134,0.225-0.2,0.338
			c-0.064,0.116-0.133,0.227-0.186,0.347c-0.055,0.119-0.091,0.246-0.132,0.369c-0.043,0.131-0.092,0.258-0.121,0.394
			c-0.027,0.115-0.038,0.233-0.054,0.354c-0.021,0.154-0.043,0.308-0.048,0.464c-0.001,0.033-0.009,0.065-0.009,0.097v336.086
			c0,2.283,1.851,4.133,4.132,4.133h326.444c2.283,0,4.133-1.85,4.133-4.133V201.1C438.019,199.914,437.509,198.852,436.708,198.096
			z M417.218,194.619c-25.336-7.261-43.938-30.621-43.938-58.258v-36.345C384.183,155.153,403.583,182.011,417.218,194.619z
			 M213.501,8.264h37.189V31.68c0,2.281,1.851,4.131,4.133,4.131h31.68c2.283,0,4.133-1.85,4.133-4.131V8.264h37.189v66.804
			c0,31.519-25.645,57.163-57.163,57.163c-31.52,0-57.162-25.646-57.162-57.163V8.264z M282.371,8.264v19.284h-23.416V8.264H282.371
			z M168.046,100.017v36.345c0,27.637-18.603,50.997-43.938,58.258C137.742,182.011,157.144,155.153,168.046,100.017z
			 M429.753,533.054h-318.18V205.11c36.058-2.145,64.737-32.16,64.737-68.748V8.264h28.926v66.804
			c0,36.077,29.351,65.428,65.427,65.428c36.075,0,65.426-29.351,65.426-65.428V8.264h28.926v128.098
			c0,36.588,28.682,66.604,64.738,68.748V533.054z"/>
		<path d="M352.619,172.174h-35.812c-2.281,0-4.133,1.852-4.133,4.133v17.906c0,2.281,1.852,4.132,4.133,4.132h35.812
			c2.281,0,4.131-1.851,4.131-4.132v-17.906C356.75,174.026,354.902,172.174,352.619,172.174z M348.488,190.08h-27.549v-9.642
			h27.549V190.08z"/>
	</g>
</g>
<g>
</g>
<g>
</g>
<g>
</g>
<g>
</g>
<g>
</g>
<g>
</g>
<g>
</g>
<g>
</g>
<g>
</g>
<g>
</g>
<g>
</g>
<g>
</g>
<g>
</g>
<g>
</g>
<g>
</g>
</svg>
