<?xml version="1.0" encoding="iso-8859-1"?>
<!-- Generator: Adobe Illustrator 16.0.0, SVG Export Plug-In . SVG Version: 6.00 Build 0)  -->
<!DOCTYPE svg PUBLIC "-//W3C//DTD SVG 1.1//EN" "http://www.w3.org/Graphics/SVG/1.1/DTD/svg11.dtd">
<svg version="1.1" id="Capa_1" xmlns="http://www.w3.org/2000/svg" xmlns:xlink="http://www.w3.org/1999/xlink" x="0px" y="0px"
	 width="331.464px" height="331.464px" viewBox="0 0 331.464 331.464" style="enable-background:new 0 0 331.464 331.464;"
	 xml:space="preserve">
<g>
	<g>
		<path d="M330.523,86.214L270.419,26.11c-0.562-0.562-1.326-0.878-2.121-0.878h-89.834h-25.333H63.298
			c-0.945,0-1.788,0.457-2.337,1.157L13.51,73.84L1.135,86.214c-1.749,1.929-1.259,2.837,0.001,4.244l47.376,47.376
			c0.562,0.562,1.326,0.879,2.121,0.879c0.796,0,1.559-0.316,2.122-0.879l3.399-3.399l4.145-4.145v172.942c0,1.657,1.343,3,3,3h205
			c1.655,0,3-1.343,3-3V130.226l7.606,7.607c0.562,0.562,1.324,0.879,2.121,0.879c0.795,0,1.56-0.316,2.121-0.879l47.375-47.376
			C331.162,89.707,332.274,87.975,330.523,86.214z M156.131,31.232h19.333v15h-19.333V31.232z M150.129,31.232v18
			c0.002,1.657,1.345,3,3.002,3h25.333c1.658,0,3-1.343,3-3v-18h37.274c-1.562,27.833-24.692,50-52.911,50
			c-28.217,0-51.348-22.167-52.909-50H150.129z M50.632,131.47L7.498,88.336l8.132-8.131l43.133,43.133L50.632,131.47z
			 M268.651,88.732c-1.658,0-3,1.343-3,3c0,0-0.354,30.752-0.354,31.252v177.248H66.298V123.046c0-0.456-0.292-31.314-0.292-31.314
			c0-1.657-1.343-3-3-3c-1.657,0-3,1.343-3,3v24.363L19.873,75.961l44.729-44.729h42.304c1.566,31.144,27.396,56,58.924,56
			c31.525,0,57.355-24.856,58.924-56h42.304l44.729,44.73l-40.136,40.133V91.732C271.651,90.075,270.307,88.732,268.651,88.732z
			 M281.027,131.47l-8.133-8.133l43.135-43.133l8.131,8.131L281.027,131.47z"/>
		<path d="M130.739,108.096H88.918c-1.657,0-3,1.343-3,3v28.322c0,13.113,20.362,22.608,22.684,23.648
			c0.391,0.175,0.809,0.262,1.227,0.262s0.836-0.087,1.226-0.262c2.322-1.04,22.686-10.535,22.686-23.648v-28.322
			C133.739,109.44,132.396,108.096,130.739,108.096z M127.739,139.419c0,7.309-11.957,14.678-17.909,17.594
			c-5.732-2.826-17.912-10.326-17.912-17.594v-25.322h35.821V139.419z"/>
	</g>
</g>
<g>
</g>
<g>
</g>
<g>
</g>
<g>
</g>
<g>
</g>
<g>
</g>
<g>
</g>
<g>
</g>
<g>
</g>
<g>
</g>
<g>
</g>
<g>
</g>
<g>
</g>
<g>
</g>
<g>
</g>
</svg>
