<?xml version="1.0" encoding="iso-8859-1"?>
<!-- Generator: Adobe Illustrator 16.0.0, SVG Export Plug-In . SVG Version: 6.00 Build 0)  -->
<!DOCTYPE svg PUBLIC "-//W3C//DTD SVG 1.1//EN" "http://www.w3.org/Graphics/SVG/1.1/DTD/svg11.dtd">
<svg version="1.1" id="Capa_1" xmlns="http://www.w3.org/2000/svg" xmlns:xlink="http://www.w3.org/1999/xlink" x="0px" y="0px"
	 width="399.219px" height="399.219px" viewBox="0 0 399.219 399.219" style="enable-background:new 0 0 399.219 399.219;"
	 xml:space="preserve">
<g>
	<g>
		<path d="M199.61,42.13c8.351,0,15.147-6.793,15.147-15.147c0-8.353-6.796-15.146-15.147-15.146
			c-8.354,0-15.147,6.793-15.147,15.147C184.462,35.338,191.257,42.13,199.61,42.13z M199.61,19.872c3.921,0,7.112,3.19,7.112,7.113
			c0,3.922-3.19,7.114-7.112,7.114c-3.924,0-7.114-3.192-7.114-7.114C192.495,23.062,195.688,19.872,199.61,19.872z"/>
		<path d="M65.365,317.867c-2.22,0-4.019,1.799-4.019,4.02v5.387c0,2.217,1.799,4.018,4.019,4.018c2.217,0,4.017-1.801,4.017-4.018
			v-5.387C69.381,319.666,67.582,317.867,65.365,317.867z"/>
		<path d="M65.365,129.293c-2.22,0-4.019,1.799-4.019,4.018v5.387c0,2.218,1.799,4.017,4.019,4.017c2.217,0,4.017-1.799,4.017-4.017
			v-5.387C69.381,131.091,67.582,129.293,65.365,129.293z"/>
		<path d="M65.365,204.723c-2.22,0-4.019,1.797-4.019,4.016v5.387c0,2.221,1.799,4.02,4.019,4.02c2.217,0,4.017-1.799,4.017-4.02
			v-5.387C69.381,206.52,67.582,204.723,65.365,204.723z"/>
		<path d="M65.365,223.579c-2.22,0-4.019,1.798-4.019,4.017v5.389c0,2.222,1.799,4.017,4.019,4.017c2.217,0,4.017-1.795,4.017-4.017
			v-5.389C69.381,225.377,67.582,223.579,65.365,223.579z"/>
		<path d="M65.365,299.008c-2.22,0-4.019,1.803-4.019,4.02v5.387c0,2.219,1.799,4.018,4.019,4.018c2.217,0,4.017-1.799,4.017-4.018
			v-5.387C69.381,300.807,67.582,299.008,65.365,299.008z"/>
		<path d="M65.365,185.864c-2.22,0-4.019,1.798-4.019,4.018v5.387c0,2.22,1.799,4.017,4.019,4.017c2.217,0,4.017-1.797,4.017-4.017
			v-5.387C69.381,187.662,67.582,185.864,65.365,185.864z"/>
		<path d="M65.365,167.007c-2.22,0-4.019,1.798-4.019,4.018v5.387c0,2.218,1.799,4.021,4.019,4.021c2.217,0,4.017-1.801,4.017-4.021
			v-5.387C69.381,168.805,67.582,167.007,65.365,167.007z"/>
		<path d="M65.365,148.152c-2.22,0-4.019,1.796-4.019,4.016v5.388c0,2.217,1.799,4.017,4.019,4.017c2.217,0,4.017-1.8,4.017-4.017
			v-5.388C69.381,149.948,67.582,148.152,65.365,148.152z"/>
		<path d="M65.365,242.436c-2.22,0-4.019,1.799-4.019,4.02v5.387c0,2.219,1.799,4.018,4.019,4.018c2.217,0,4.017-1.799,4.017-4.018
			v-5.387C69.381,244.234,67.582,242.436,65.365,242.436z"/>
		<path d="M65.365,280.152c-2.22,0-4.019,1.797-4.019,4.016v5.389c0,2.221,1.799,4.018,4.019,4.018c2.217,0,4.017-1.797,4.017-4.018
			v-5.389C69.381,281.949,67.582,280.152,65.365,280.152z"/>
		<path d="M65.365,261.293c-2.22,0-4.019,1.801-4.019,4.021v5.385c0,2.22,1.799,4.019,4.019,4.019c2.217,0,4.017-1.799,4.017-4.019
			v-5.385C69.381,263.093,67.582,261.293,65.365,261.293z"/>
		<path d="M333.853,161.573c2.222,0,4.021-1.799,4.021-4.016v-5.387c0-2.221-1.799-4.019-4.021-4.019
			c-2.217,0-4.017,1.798-4.017,4.019v5.387C329.838,159.774,331.638,161.573,333.853,161.573z"/>
		<path d="M333.853,255.859c2.222,0,4.021-1.799,4.021-4.019v-5.39c0-2.219-1.799-4.018-4.021-4.018
			c-2.217,0-4.017,1.799-4.017,4.018v5.39C329.838,254.061,331.638,255.859,333.853,255.859z"/>
		<path d="M333.853,312.43c2.222,0,4.021-1.799,4.021-4.018v-5.387c0-2.217-1.799-4.02-4.021-4.02c-2.217,0-4.017,1.803-4.017,4.02
			v5.387C329.838,310.631,331.638,312.43,333.853,312.43z"/>
		<path d="M333.853,237.002c2.222,0,4.021-1.797,4.021-4.018v-5.39c0-2.219-1.799-4.019-4.021-4.019c-2.217,0-4.017,1.8-4.017,4.019
			v5.388C329.838,235.205,331.638,237.002,333.853,237.002z"/>
		<path d="M333.853,293.574c2.222,0,4.021-1.799,4.021-4.021v-5.387c0-2.218-1.799-4.017-4.021-4.017
			c-2.217,0-4.017,1.799-4.017,4.017v5.387C329.838,291.775,331.638,293.574,333.853,293.574z"/>
		<path d="M333.853,274.714c2.222,0,4.021-1.795,4.021-4.017v-5.387c0-2.219-1.799-4.021-4.021-4.021
			c-2.217,0-4.017,1.803-4.017,4.021v5.387C329.838,272.92,331.638,274.714,333.853,274.714z"/>
		<path d="M333.853,218.145c2.222,0,4.021-1.8,4.021-4.021v-5.388c0-2.217-1.799-4.016-4.021-4.016
			c-2.217,0-4.017,1.799-4.017,4.016v5.388C329.838,216.345,331.638,218.145,333.853,218.145z"/>
		<path d="M333.853,331.289c2.222,0,4.021-1.801,4.021-4.018v-5.387c0-2.223-1.799-4.02-4.021-4.02c-2.217,0-4.017,1.797-4.017,4.02
			v5.387C329.838,329.488,331.638,331.289,333.853,331.289z"/>
		<path d="M333.853,142.715c2.222,0,4.021-1.798,4.021-4.018v-5.387c0-2.218-1.799-4.019-4.021-4.019
			c-2.217,0-4.017,1.801-4.017,4.019v5.387C329.838,140.918,331.638,142.715,333.853,142.715z"/>
		<path d="M333.853,180.43c2.222,0,4.021-1.801,4.021-4.017v-5.388c0-2.218-1.799-4.017-4.021-4.017
			c-2.217,0-4.017,1.799-4.017,4.017v5.388C329.838,178.63,331.638,180.43,333.853,180.43z"/>
		<path d="M333.853,199.287c2.222,0,4.021-1.799,4.021-4.018v-5.388c0-2.217-1.799-4.018-4.021-4.018
			c-2.217,0-4.017,1.801-4.017,4.018v5.388C329.838,197.488,331.638,199.287,333.853,199.287z"/>
		<path d="M54.221,376.896c-2.218,0-4.017,1.799-4.017,4.018v5.355c0,2.221,1.799,4.02,4.017,4.02c2.221,0,4.018-1.799,4.018-4.02
			v-5.355C58.238,378.695,56.441,376.896,54.221,376.896z"/>
		<path d="M54.221,358.15c-2.218,0-4.017,1.797-4.017,4.016v5.355c0,2.221,1.799,4.02,4.017,4.02c2.221,0,4.018-1.799,4.018-4.02
			v-5.355C58.238,359.947,56.441,358.15,54.221,358.15z"/>
		<path d="M344.998,358.15c-2.219,0-4.017,1.797-4.017,4.016v5.355c0,2.221,1.798,4.02,4.017,4.02c2.222,0,4.019-1.799,4.019-4.02
			v-5.355C349.016,359.947,347.22,358.15,344.998,358.15z"/>
		<path d="M344.998,376.896c-2.219,0-4.017,1.799-4.017,4.018v5.355c0,2.221,1.798,4.02,4.017,4.02c2.222,0,4.019-1.799,4.019-4.02
			v-5.355C349.016,378.695,347.22,376.896,344.998,376.896z"/>
		<path d="M355.141,339.404h-4.69V4.017c0-2.216-1.8-4.017-4.019-4.017H52.632c-2.221,0-4.02,1.801-4.02,4.017v335.387h-4.534
			c-2.216,0-4.018,1.795-4.018,4.018v51.777c0,2.219,1.802,4.02,4.018,4.02H185.36c2.217,0,4.018-1.801,4.018-4.02v-51.777
			c0-2.223-1.801-4.018-4.018-4.018h-4.181v-207.49c0-10.121,8.232-18.352,18.352-18.352c10.118,0,18.349,8.23,18.349,18.363
			v207.479h-4.021c-2.22,0-4.02,1.795-4.02,4.018v51.777c0,2.219,1.8,4.02,4.02,4.02h141.28c2.22,0,4.019-1.801,4.019-4.02v-51.777
			C359.158,341.199,357.359,339.404,355.141,339.404z M239.115,8.036h103.297v38.837H239.115V8.036L239.115,8.036z M342.412,54.908
			v51.608c-27.562-1.972-49.637-24.047-51.606-51.608H342.412z M56.652,8.036h174.427v38.837H56.651L56.652,8.036L56.652,8.036z
			 M56.648,54.908h51.606c-1.973,27.562-24.045,49.637-51.606,51.608V54.908L56.648,54.908z M181.343,347.438v43.744H48.097v-43.744
			h2.107v1.34c0,2.217,1.799,4.02,4.017,4.02c2.221,0,4.018-1.803,4.018-4.02v-1.34H181.343z M199.532,105.527
			c-14.549,0-26.387,11.836-26.387,26.387V339.4H69.135c-0.553-1.555-2.024-2.678-3.77-2.678c-1.749,0-3.219,1.123-3.773,2.678
			h-4.94V114.572c1.592-0.099,3.17-0.26,4.731-0.474c-0.011,0.117-0.033,0.233-0.033,0.354v5.388c0,2.219,1.798,4.019,4.018,4.019
			c2.217,0,4.017-1.8,4.017-4.019v-5.388c0-0.67-0.182-1.292-0.473-1.852c26.082-6.887,45.669-29.907,47.403-57.692H282.75
			c1.738,27.835,21.39,50.892,47.541,57.732c-0.278,0.545-0.45,1.156-0.45,1.812v5.388c0,2.219,1.799,4.019,4.018,4.019
			c2.218,0,4.019-1.8,4.019-4.019v-5.388c0-0.113-0.026-0.22-0.034-0.335c1.51,0.207,3.034,0.36,4.573,0.456v224.83h-4.784
			c-0.556-1.557-2.023-2.678-3.771-2.678c-1.748,0-3.22,1.121-3.772,2.678H225.918v-207.49
			C225.916,117.363,214.078,105.527,199.532,105.527z M351.123,391.182H217.877v-43.744h123.104v1.34c0,2.217,1.798,4.02,4.017,4.02
			c2.222,0,4.019-1.803,4.019-4.02v-1.34h2.106V391.182z"/>
	</g>
</g>
<g>
</g>
<g>
</g>
<g>
</g>
<g>
</g>
<g>
</g>
<g>
</g>
<g>
</g>
<g>
</g>
<g>
</g>
<g>
</g>
<g>
</g>
<g>
</g>
<g>
</g>
<g>
</g>
<g>
</g>
</svg>
