<?xml version="1.0" encoding="iso-8859-1"?>
<!-- Generator: Adobe Illustrator 16.0.0, SVG Export Plug-In . SVG Version: 6.00 Build 0)  -->
<!DOCTYPE svg PUBLIC "-//W3C//DTD SVG 1.1//EN" "http://www.w3.org/Graphics/SVG/1.1/DTD/svg11.dtd">
<svg version="1.1" id="Capa_1" xmlns="http://www.w3.org/2000/svg" xmlns:xlink="http://www.w3.org/1999/xlink" x="0px" y="0px"
	 width="577.699px" height="577.699px" viewBox="0 0 577.699 577.699" style="enable-background:new 0 0 577.699 577.699;"
	 xml:space="preserve">
<g>
	<path d="M576.762,347.481l-21.214-21.215c0.31-1.945,0.475-3.926,0.475-5.936c0-9.971-3.883-19.344-10.935-26.396L422.161,171.009
		c-6.92-6.92-16.107-10.796-25.896-10.925c-0.077-0.005-0.155-0.009-0.235-0.009h-35.91c-5.963-10.495-17.223-17.604-30.133-17.604
		h-82.275c-12.909,0-24.169,7.108-30.133,17.604h-35.911c-0.08,0-0.157,0.004-0.234,0.009c-9.787,0.129-18.975,4.005-25.896,10.925
		L32.611,293.938c-8.783,8.783-12.256,20.892-10.438,32.31L0.938,347.482c-1.25,1.249-1.25,3.274,0,4.522l25.265,25.268
		c0.602,0.6,1.415,0.938,2.263,0.938c0.849,0,1.663-0.338,2.263-0.938l20.439-20.439c2.549,0.543,5.173,0.828,7.841,0.828
		c9.972,0,19.346-3.882,26.396-10.934l93.066-93.068V432.03c0,1.768,1.433,3.197,3.199,3.197h214.361c1.769,0,3.2-1.432,3.2-3.197
		V253.66l93.067,93.068c7.05,7.052,16.424,10.934,26.395,10.934c2.67,0,5.293-0.285,7.842-0.83l20.44,20.441
		c0.6,0.6,1.413,0.938,2.262,0.938c0.851,0,1.662-0.338,2.264-0.938l25.263-25.268C578.012,350.757,578.012,348.73,576.762,347.481z
		 M233.946,166.476l25.959,38.802l-33.538-38.802H233.946z M241.646,166.476h33.755v13.727c0,1.766,1.433,3.199,3.2,3.199H299.1
		c1.768,0,3.2-1.434,3.2-3.199v-13.727h33.756l-47.205,70.558L241.646,166.476z M295.898,166.777v10.224H281.8v-10.224H295.898z
		 M317.796,205.277l25.959-38.802h7.578L317.796,205.277z M247.712,148.873h82.275c9.179,0,17.342,4.403,22.506,11.204h-10.455
		c-0.002,0-0.007,0-0.01,0H235.669c-0.002,0-0.004,0-0.005,0h-10.459C230.37,153.275,238.533,148.873,247.712,148.873z
		 M28.464,370.482L7.725,349.743l16.332-16.332c1.811,4.859,4.655,9.416,8.554,13.315c3.415,3.415,7.376,6.078,11.684,7.924
		L28.464,370.482z M496.822,342.204l-98.528-98.531c-0.914-0.915-2.289-1.19-3.487-0.693c-1.195,0.496-1.976,1.662-1.976,2.956
		v182.893H184.868V245.936c0-1.294-0.781-2.459-1.976-2.956c-1.196-0.495-2.572-0.224-3.487,0.693l-98.529,98.53
		c-5.842,5.842-13.607,9.06-21.871,9.06c-8.262,0-16.027-3.218-21.871-9.06c-12.058-12.06-12.058-31.682,0-43.74l122.928-122.927
		c5.775-5.774,13.457-8.99,21.631-9.052c0.06-0.002,0.118-0.004,0.176-0.007h36.041l39.281,45.448v67.317
		c0,1.767,1.433,3.199,3.2,3.199c1.767,0,3.198-1.432,3.198-3.199v-59.914L286.1,245.37c0.61,0.705,1.494,1.107,2.42,1.107
		c0.065,0,0.132-0.002,0.198-0.006c0.045-0.003,0.086-0.018,0.131-0.022c0.045,0.005,0.087,0.02,0.131,0.022
		c0.065,0.004,0.132,0.006,0.198,0.006c0.926,0,1.811-0.402,2.421-1.107l22.51-26.043v59.914c0,1.767,1.433,3.199,3.199,3.199
		s3.199-1.432,3.199-3.199v-67.317l39.28-45.448h36.041c0.059,0.003,0.117,0.005,0.177,0.007c8.175,0.062,15.855,3.276,21.631,9.051
		l122.927,122.928c5.842,5.842,9.06,13.609,9.06,21.871s-3.218,16.027-9.06,21.871c-5.842,5.84-13.609,9.059-21.871,9.059
		S502.664,348.044,496.822,342.204z M549.236,370.482l-15.831-15.832c4.309-1.846,8.271-4.511,11.684-7.924
		c3.838-3.835,6.728-8.364,8.572-13.298l16.314,16.314L549.236,370.482z"/>
</g>
<g>
</g>
<g>
</g>
<g>
</g>
<g>
</g>
<g>
</g>
<g>
</g>
<g>
</g>
<g>
</g>
<g>
</g>
<g>
</g>
<g>
</g>
<g>
</g>
<g>
</g>
<g>
</g>
<g>
</g>
</svg>
