<?xml version="1.0" encoding="iso-8859-1"?>
<!-- Generator: Adobe Illustrator 16.0.0, SVG Export Plug-In . SVG Version: 6.00 Build 0)  -->
<!DOCTYPE svg PUBLIC "-//W3C//DTD SVG 1.1//EN" "http://www.w3.org/Graphics/SVG/1.1/DTD/svg11.dtd">
<svg version="1.1" id="Capa_1" xmlns="http://www.w3.org/2000/svg" xmlns:xlink="http://www.w3.org/1999/xlink" x="0px" y="0px"
	 width="469.007px" height="469.007px" viewBox="0 0 469.007 469.007" style="enable-background:new 0 0 469.007 469.007;"
	 xml:space="preserve">
<g>
	<path d="M466.881,94.641l-95.484-58.514c-0.848-0.952-2.059-1.497-3.332-1.497l-266.629,0.001l-0.114-0.001
		c-0.825,0-1.634,0.227-2.336,0.656L2.126,94.64c-2.094,1.283-2.754,4.031-1.472,6.127l40.838,66.642
		c0.621,1.015,1.601,1.728,2.759,2.006c1.135,0.274,2.365,0.08,3.369-0.532l49.441-30.3v291.339c0,2.457,1.998,4.455,4.454,4.455
		h266.549c2.455,0,4.453-1.998,4.453-4.455V138.935l48.869,29.947c1,0.611,2.229,0.803,3.367,0.532
		c1.143-0.275,2.148-1.006,2.76-2.006l40.838-66.642C469.635,98.672,468.975,95.924,466.881,94.641z M216.988,66.258V43.539h35.029
		v22.719H216.988z M212.534,75.169h43.937c2.457,0,4.455-1.998,4.455-4.454V43.54h58.039c-2.342,44.979-39.342,80.134-84.462,80.134
		c-45.123,0-82.123-35.155-84.462-80.134h58.038v27.175C208.08,73.171,210.078,75.169,212.534,75.169z M103.691,126.742
		c-1.382-0.772-3.156-0.736-4.503,0.088l-52.427,32.129L10.579,99.91l91.507-56.075c0.212-0.026,0.427-0.07,0.642-0.13
		c0.162-0.047,0.321-0.102,0.476-0.165h37.926c1.128,23.914,11.282,46.245,28.627,62.926c17.514,16.843,40.508,26.118,64.748,26.118
		s47.234-9.275,64.748-26.118c17.344-16.68,27.498-39.012,28.627-62.926h38.561l91.988,56.37l-36.184,59.049l-51.854-31.777
		c-1.352-0.825-3.123-0.859-4.504-0.088c-1.404,0.788-2.277,2.277-2.277,3.888V425.47h-257.64V130.629
		C105.969,129.019,105.096,127.53,103.691,126.742z"/>
</g>
<g>
</g>
<g>
</g>
<g>
</g>
<g>
</g>
<g>
</g>
<g>
</g>
<g>
</g>
<g>
</g>
<g>
</g>
<g>
</g>
<g>
</g>
<g>
</g>
<g>
</g>
<g>
</g>
<g>
</g>
</svg>
