<?xml version="1.0" encoding="iso-8859-1"?>
<!-- Generator: Adobe Illustrator 16.0.0, SVG Export Plug-In . SVG Version: 6.00 Build 0)  -->
<!DOCTYPE svg PUBLIC "-//W3C//DTD SVG 1.1//EN" "http://www.w3.org/Graphics/SVG/1.1/DTD/svg11.dtd">
<svg version="1.1" id="Capa_1" xmlns="http://www.w3.org/2000/svg" xmlns:xlink="http://www.w3.org/1999/xlink" x="0px" y="0px"
	 width="316.542px" height="316.543px" viewBox="0 0 316.542 316.543" style="enable-background:new 0 0 316.542 316.543;"
	 xml:space="preserve">
<g>
	<g>
		<path d="M82.045,0c-1.295,0-2.536,0.499-3.404,1.369c-2.398,2.4-58.722,59.158-58.897,92.51
			c-0.07,13.185,3.311,28.624,6.581,43.554c2.735,12.488,5.319,24.284,5.378,32.81c0.091,12.95-1.051,41.583-2.028,63.394
			c-0.174,0.508-0.263,1.024-0.263,1.541c0,0.928,0.025,1.848,0.073,2.653c-0.432,9.446-0.755,15.963-0.768,16.192l-0.004,0.218
			c0,17.132,4.752,32.622,13.379,43.62c9.587,12.223,23.402,18.682,39.953,18.682c16.551,0,30.365-6.461,39.953-18.682
			c8.626-10.998,13.378-26.49,13.378-43.62c0-0.081-0.002-0.162-0.007-0.234l-0.026-0.54c-0.085-1.752-0.374-7.645-0.738-15.523
			c0.047-0.916,0.072-1.838,0.072-2.766c0-0.517-0.089-1.035-0.263-1.543c-0.977-21.82-2.118-50.464-2.027-63.392
			c0.056-8.027,2.427-18.247,4.937-29.066c3.326-14.33,7.096-30.571,7.023-47.293C144.203,60.505,87.85,3.768,85.451,1.369
			C84.582,0.499,83.34,0,82.045,0z M82.045,306.918c-32.23,0-40.641-27.32-42.824-41.199c9.831,13.736,25.826,22.092,42.824,22.092
			s32.992-8.355,42.823-22.092C122.686,279.598,114.275,306.918,82.045,306.918z M124.968,237.781
			c-1.362,22.662-20.204,40.404-42.923,40.404c-22.722,0-41.564-17.744-42.924-40.406c0.87-19.075,2.309-53.159,2.207-67.604
			c-0.067-9.524-2.755-21.802-5.602-34.8c-2.123-9.695-4.316-19.715-5.491-28.942l51.81-39.975l51.996,40.117
			c-1.195,11.302-3.794,22.514-6.092,32.427c-2.636,11.354-5.124,22.08-5.187,31.173
			C122.662,184.639,124.101,218.714,124.968,237.781z M79.105,56.57L29.374,94.941c-0.004-0.339-0.006-0.676-0.004-1.011
			c0.133-25.334,42.181-71.188,52.677-82.238c10.501,11.043,52.567,56.874,52.677,82.234c0.001,0.339,0.001,0.679-0.002,1.018
			L84.987,56.571c-0.839-0.646-1.883-1.001-2.94-1.001C80.987,55.569,79.944,55.924,79.105,56.57z"/>
		<path d="M89.917,184.964H74.174c-2.654,0-4.812,2.158-4.812,4.812v57.988c0,2.652,2.159,4.812,4.812,4.812h15.743
			c2.654,0,4.813-2.158,4.813-4.812v-57.988C94.73,187.123,92.57,184.964,89.917,184.964z M85.104,194.587v48.363h-6.119v-48.363
			H85.104z"/>
		<path d="M290.218,137.433c3.27-14.931,6.649-30.369,6.58-43.554C296.623,60.527,240.299,3.77,237.902,1.37
			C237.034,0.499,235.793,0,234.498,0c-1.294,0-2.534,0.498-3.402,1.368c-2.399,2.399-58.755,59.137-58.897,92.515
			c-0.074,16.716,3.695,32.961,7.021,47.293c2.51,10.815,4.881,21.029,4.938,29.066c0.091,12.928-1.051,41.568-2.026,63.391
			c-0.176,0.508-0.265,1.025-0.265,1.544c0,0.929,0.025,1.851,0.073,2.657c-0.413,9.072-0.729,15.441-0.766,16.162
			c-0.006,0.082-0.007,0.163-0.007,0.244c0,17.131,4.752,32.623,13.38,43.619c9.587,12.223,23.401,18.682,39.951,18.682
			c16.551,0,30.365-6.459,39.952-18.682c8.628-10.998,13.38-26.488,13.38-43.619l-0.007-0.247c-0.011-0.2-0.334-6.718-0.766-16.054
			c0.048-0.916,0.072-1.836,0.072-2.764c0-0.518-0.09-1.033-0.264-1.542c-0.978-21.821-2.118-50.465-2.026-63.394
			C284.899,161.717,287.483,149.921,290.218,137.433z M234.498,306.918c-32.229,0-40.64-27.32-42.823-41.199
			c9.832,13.736,25.825,22.092,42.823,22.092c16.999,0,32.993-8.355,42.824-22.092C275.137,279.598,266.727,306.918,234.498,306.918
			z M277.421,237.779c-1.36,22.662-20.203,40.406-42.925,40.406c-22.719,0-41.561-17.742-42.923-40.404
			c0.868-19.086,2.309-53.188,2.206-67.605c-0.064-9.089-2.552-19.812-5.187-31.173c-2.3-9.909-4.899-21.117-6.094-32.427
			l51.996-40.117l51.811,39.975c-1.175,9.228-3.368,19.247-5.49,28.942c-2.848,12.998-5.535,25.274-5.603,34.8
			C275.113,184.62,276.551,218.704,277.421,237.779z M231.557,56.57l-49.735,38.374c-0.002-0.339-0.003-0.678-0.001-1.019
			c0.109-25.357,42.175-71.189,52.676-82.234c10.495,11.05,52.545,56.905,52.679,82.238c0.002,0.335,0,0.672-0.005,1.012
			l-49.732-38.372C235.758,55.279,233.234,55.279,231.557,56.57z"/>
		<path d="M242.369,184.964h-15.743c-2.653,0-4.812,2.158-4.812,4.812v57.988c0,2.652,2.158,4.812,4.812,4.812h15.743
			c2.654,0,4.813-2.158,4.813-4.812v-57.988C247.182,187.123,245.023,184.964,242.369,184.964z M237.556,194.587v48.363h-6.119
			v-48.363H237.556z"/>
	</g>
</g>
<g>
</g>
<g>
</g>
<g>
</g>
<g>
</g>
<g>
</g>
<g>
</g>
<g>
</g>
<g>
</g>
<g>
</g>
<g>
</g>
<g>
</g>
<g>
</g>
<g>
</g>
<g>
</g>
<g>
</g>
</svg>
