<?xml version="1.0" encoding="iso-8859-1"?>
<!-- Generator: Adobe Illustrator 16.0.0, SVG Export Plug-In . SVG Version: 6.00 Build 0)  -->
<!DOCTYPE svg PUBLIC "-//W3C//DTD SVG 1.1//EN" "http://www.w3.org/Graphics/SVG/1.1/DTD/svg11.dtd">
<svg version="1.1" id="Capa_1" xmlns="http://www.w3.org/2000/svg" xmlns:xlink="http://www.w3.org/1999/xlink" x="0px" y="0px"
	 width="320.716px" height="320.715px" viewBox="0 0 320.716 320.715" style="enable-background:new 0 0 320.716 320.715;"
	 xml:space="preserve">
<g>
	<g>
		<path d="M320.579,273.824L283.788,45.223c-0.312-1.95-1.974-3.365-3.948-3.365H40.85c-1.975,0-3.636,1.415-3.95,3.365l-36.848,229
			c-0.187,1.157,0.143,2.334,0.904,3.229c0.763,0.894,1.873,1.405,3.045,1.405h312.715c2.206,0,4-1.794,4-4
			C320.716,274.506,320.67,274.159,320.579,273.824z M90.584,84.191V49.858h6.667v34.333H90.584z M105.25,84.191V49.858h74.597
			v34.333H105.25z M223.443,84.191V49.858h6.668v34.333H223.443z M38.731,84.191l5.524-34.333h38.328v34.333H38.731z
			 M238.111,84.191V49.858h38.321l5.524,34.333H238.111z M183.848,144.358c2.206,0,4-1.794,4-4V92.191h49.006
			c2.037,28.845,25.846,51.516,54.785,52.145l20.362,126.522H8.695l20.357-126.522c28.94-0.626,52.751-23.299,54.79-52.145h96.005
			v48.167C179.848,142.564,181.642,144.358,183.848,144.358z M244.882,92.191h38.363l7.095,44.085
			C266.517,135.021,246.854,115.967,244.882,92.191z M30.35,136.276l7.094-44.085h38.369
			C73.839,115.969,54.175,135.023,30.35,136.276z M187.848,84.191V49.858h27.597v34.333H187.848z"/>
		<path d="M160.348,52.858c-7.72,0-14,6.28-14,14s6.28,14,14,14c7.72,0,14-6.28,14-14S168.066,52.858,160.348,52.858z
			 M160.348,72.858c-3.309,0-6-2.691-6-6s2.691-6,6-6c3.309,0,6,2.691,6,6S163.655,72.858,160.348,72.858z"/>
	</g>
</g>
<g>
</g>
<g>
</g>
<g>
</g>
<g>
</g>
<g>
</g>
<g>
</g>
<g>
</g>
<g>
</g>
<g>
</g>
<g>
</g>
<g>
</g>
<g>
</g>
<g>
</g>
<g>
</g>
<g>
</g>
</svg>
