<?xml version="1.0" encoding="iso-8859-1"?>
<!-- Generator: Adobe Illustrator 16.0.0, SVG Export Plug-In . SVG Version: 6.00 Build 0)  -->
<!DOCTYPE svg PUBLIC "-//W3C//DTD SVG 1.1//EN" "http://www.w3.org/Graphics/SVG/1.1/DTD/svg11.dtd">
<svg version="1.1" id="Capa_1" xmlns="http://www.w3.org/2000/svg" xmlns:xlink="http://www.w3.org/1999/xlink" x="0px" y="0px"
	 width="465.238px" height="465.238px" viewBox="0 0 465.238 465.238" style="enable-background:new 0 0 465.238 465.238;"
	 xml:space="preserve">
<g>
	<g>
		<path d="M69.949,178.702h325.342c2.526,0,4.582-2.056,4.582-4.582s-2.056-4.582-4.582-4.582h-11.417L312.528,54.465
			c-0.003-0.127-0.011-0.256-0.029-0.386l-7.164-50.145c-0.351-2.458-2.69-4.247-5.184-3.888c-1.211,0.173-2.283,0.808-3.019,1.787
			c-0.733,0.979-1.043,2.186-0.87,3.397l6.806,47.628l-72.141,116.354l-71.04-114.581l7.058-49.402
			c0.173-1.212-0.136-2.419-0.871-3.397c-0.734-0.979-1.806-1.614-3.019-1.787c-2.522-0.348-4.831,1.435-5.182,3.888l-6.839,47.873
			c-0.167,0.196-0.308,0.39-0.423,0.587L81.302,169.538H69.947c-2.526,0-4.582,2.056-4.582,4.582S67.422,178.702,69.949,178.702z
			 M91.951,169.537l62.696-105.969l65.698,105.969H91.951z M241.51,169.537l65.791-106.115l65.791,106.115H241.51z"/>
		<path d="M395.291,325.939H69.949c-2.526,0-4.582,2.056-4.582,4.582c0,2.525,2.055,4.582,4.582,4.582h14.746l100.149,128.372
			c0.875,1.119,2.191,1.763,3.612,1.763h88.312c1.421,0,2.736-0.644,3.611-1.763l100.167-128.372h14.745
			c2.526,0,4.582-2.057,4.582-4.582C399.873,327.995,397.818,325.939,395.291,325.939z M180.447,442.941L96.318,335.104h56.086
			L180.447,442.941z M303.369,335.104l-31.465,120.972H193.33l-31.458-120.972H303.369z M368.921,335.104l-84.127,107.818
			l28.043-107.818H368.921z"/>
	</g>
</g>
<g>
</g>
<g>
</g>
<g>
</g>
<g>
</g>
<g>
</g>
<g>
</g>
<g>
</g>
<g>
</g>
<g>
</g>
<g>
</g>
<g>
</g>
<g>
</g>
<g>
</g>
<g>
</g>
<g>
</g>
</svg>
