<?xml version="1.0" encoding="iso-8859-1"?>
<!-- Generator: Adobe Illustrator 16.0.0, SVG Export Plug-In . SVG Version: 6.00 Build 0)  -->
<!DOCTYPE svg PUBLIC "-//W3C//DTD SVG 1.1//EN" "http://www.w3.org/Graphics/SVG/1.1/DTD/svg11.dtd">
<svg version="1.1" id="Capa_1" xmlns="http://www.w3.org/2000/svg" xmlns:xlink="http://www.w3.org/1999/xlink" x="0px" y="0px"
	 width="563.165px" height="563.165px" viewBox="0 0 563.165 563.165" style="enable-background:new 0 0 563.165 563.165;"
	 xml:space="preserve">
<g>
	<path d="M562.164,346.823h-35.547h-54.92c0.918-39.559-8.48-83.556-8.885-85.425l-0.269-1.235v-91.729c0-0.552-0.447-1-1-1h-24.402
		c-0.553,0-1,0.448-1,1v91.048c-13.711,1.84-34.022,5.872-54.521,14.67c-29.785,12.785-67.012,39.195-75.715,92.466h-48.648
		c-8.703-53.271-45.931-79.682-75.715-92.466c-20.5-8.798-40.812-12.83-54.522-14.67v-91.048c0-0.552-0.448-1-1-1h-24.402
		c-0.552,0-1,0.448-1,1v91.729l-0.266,1.234c-0.404,1.863-9.81,45.742-8.884,85.426H36.547H1c-0.552,0-1,0.446-1,1v46.908
		c0,0.553,0.448,1,1,1h35.547h80.934c0.265,0,0.506-0.105,0.685-0.271h132.676h7.32h46.84h7.32H445
		c0.178,0.168,0.42,0.271,0.684,0.271h80.935h35.547c0.553,0,1-0.447,1-1v-46.908C563.164,347.271,562.717,346.823,562.164,346.823z
		 M553.844,356.144v30.269h-18.905v-30.269H553.844z M445.465,257.721v-80.967h7.76v80.967H445.465z M455.746,386.139H313.391
		c1.433-48.689,25.556-83.458,71.716-103.34c29.434-12.68,59.543-15.157,69.36-15.633
		C457.561,283.104,469.897,352.926,455.746,386.139z M525.617,356.144v30.269h-59.988c2.92-8.138,4.816-18.306,5.644-30.269H525.617
		z M259.162,386.139v-10.2h44.84v10.2H259.162z M109.939,257.721v-80.967h7.761v80.967H109.939z M249.773,386.139H107.418
		c-14.142-33.196-1.812-103.034,1.28-118.977c9.772,0.469,39.736,2.92,69.168,15.553
		C224.149,302.581,248.338,337.377,249.773,386.139z M97.534,386.411H37.547v-30.268h54.346
		C92.719,368.103,94.615,378.272,97.534,386.411z M9.32,386.411v-30.268h18.906v30.268H9.32z"/>
</g>
<g>
</g>
<g>
</g>
<g>
</g>
<g>
</g>
<g>
</g>
<g>
</g>
<g>
</g>
<g>
</g>
<g>
</g>
<g>
</g>
<g>
</g>
<g>
</g>
<g>
</g>
<g>
</g>
<g>
</g>
</svg>
