<?xml version="1.0" encoding="iso-8859-1"?>
<!-- Generator: Adobe Illustrator 16.0.0, SVG Export Plug-In . SVG Version: 6.00 Build 0)  -->
<!DOCTYPE svg PUBLIC "-//W3C//DTD SVG 1.1//EN" "http://www.w3.org/Graphics/SVG/1.1/DTD/svg11.dtd">
<svg version="1.1" id="Capa_1" xmlns="http://www.w3.org/2000/svg" xmlns:xlink="http://www.w3.org/1999/xlink" x="0px" y="0px"
	 width="376px" height="376px" viewBox="0 0 376 376" style="enable-background:new 0 0 376 376;" xml:space="preserve">
<g>
	<path d="M371.5,183.5h-21.461v-25.592c0-7.688-6.254-13.94-13.941-13.94H218.092c-7.687,0-13.939,6.254-13.939,13.94V183.5h-32.303
		v-25.592c0-7.688-6.254-13.94-13.94-13.94H39.902c-7.688,0-13.941,6.254-13.941,13.94V183.5H4.5c-2.481,0-4.5,2.019-4.5,4.5
		c0,2.481,2.019,4.5,4.5,4.5h21.461v25.592c0,7.687,6.254,13.94,13.941,13.94h118.006c7.687,0,13.94-6.254,13.94-13.94V192.5h32.303
		v25.592c0,7.687,6.254,13.94,13.939,13.94h118.006c7.688,0,13.941-6.254,13.941-13.94V192.5H371.5c2.481,0,4.5-2.019,4.5-4.5
		C376,185.519,373.981,183.5,371.5,183.5z M34.961,157.908c0-2.725,2.217-4.94,4.941-4.94h22.571L34.96,180.481L34.961,157.908
		L34.961,157.908z M34.961,193.209l40.179-40.172l0.259-0.069h8.611l-49.049,49.049V193.209L34.961,193.209z M162.849,218.092
		c0,2.726-2.216,4.94-4.94,4.94H39.902c-2.725,0-4.941-2.217-4.941-4.94v-3.348l61.717-61.717l0.257-0.06h60.974
		c2.725,0,4.94,2.216,4.94,4.94V218.092z M213.151,157.908c0-2.725,2.216-4.94,4.939-4.94h22.572l-27.513,27.514L213.151,157.908
		L213.151,157.908z M213.151,193.208l40.18-40.181l0.257-0.06h8.612l-49.049,49.05V193.208L213.151,193.208z M341.039,218.092
		c0,2.726-2.217,4.94-4.941,4.94H218.092c-2.725,0-4.939-2.217-4.939-4.94v-3.348l61.716-61.717l0.257-0.06h60.974
		c2.726,0,4.941,2.216,4.941,4.94L341.039,218.092L341.039,218.092z"/>
</g>
<g>
</g>
<g>
</g>
<g>
</g>
<g>
</g>
<g>
</g>
<g>
</g>
<g>
</g>
<g>
</g>
<g>
</g>
<g>
</g>
<g>
</g>
<g>
</g>
<g>
</g>
<g>
</g>
<g>
</g>
</svg>
