<?xml version="1.0" encoding="iso-8859-1"?>
<!-- Generator: Adobe Illustrator 16.0.0, SVG Export Plug-In . SVG Version: 6.00 Build 0)  -->
<!DOCTYPE svg PUBLIC "-//W3C//DTD SVG 1.1//EN" "http://www.w3.org/Graphics/SVG/1.1/DTD/svg11.dtd">
<svg version="1.1" id="Capa_1" xmlns="http://www.w3.org/2000/svg" xmlns:xlink="http://www.w3.org/1999/xlink" x="0px" y="0px"
	 width="358.165px" height="358.165px" viewBox="0 0 358.165 358.165" style="enable-background:new 0 0 358.165 358.165;"
	 xml:space="preserve">
<g>
	<g>
		<path d="M164.458,114.562l7.465,4.504l-7.466,4.503c-0.847,0.511-1.443,1.32-1.682,2.279c-0.237,0.959-0.088,1.953,0.425,2.797
			c0.665,1.104,1.88,1.789,3.169,1.789c0.674,0,1.334-0.185,1.905-0.534l10.809-6.517l10.804,6.516
			c0.574,0.351,1.233,0.535,1.91,0.535c1.291,0,2.504-0.686,3.168-1.789c1.051-1.744,0.487-4.021-1.258-5.076l-7.468-4.503
			l7.468-4.503c0.846-0.511,1.442-1.319,1.682-2.278c0.238-0.96,0.088-1.953-0.422-2.799c-0.676-1.121-1.86-1.79-3.17-1.79
			c-0.67,0-1.33,0.184-1.906,0.532l-10.808,6.518l-10.809-6.519c-0.576-0.348-1.236-0.531-1.906-0.531
			c-1.311,0-2.494,0.669-3.168,1.789c-0.512,0.846-0.662,1.84-0.426,2.799C163.012,113.243,163.61,114.051,164.458,114.562z"/>
		<path d="M356.665,95.423L1.5,95.422c-0.398,0-0.779,0.158-1.061,0.439C0.157,96.142,0,96.524,0,96.922v43.07
			c0,0.508,0.176,1.094,0.281,1.403c0.053,0.134,0.113,0.285,0.669,1.054c0.043,0.059,0.09,0.115,0.141,0.167L117.048,261.58
			c0.039,0.039,0.079,0.076,0.122,0.111l0.429,0.353c0.041,0.033,0.083,0.063,0.126,0.094c0.144,0.097,0.586,0.313,0.586,0.313
			c0.043,0.021,0.069,0.031,0.115,0.049c0.224,0.085,1.001,0.243,1.317,0.243l118.736-0.005c0,0,0.473-0.035,0.641-0.066
			c0.094-0.018,0.176-0.039,0.265-0.074c0,0,0.754-0.296,0.809-0.322c0.085-0.043,0.164-0.092,0.238-0.148l0.488-0.372
			c0.06-0.045,0.113-0.094,0.165-0.146l116.091-119.113c0.104-0.111,0.373-0.469,0.373-0.469c0.034-0.046,0.059-0.083,0.087-0.133
			c0.107-0.182,0.183-0.338,0.279-0.583c0,0,0.134-0.417,0.161-0.557c0,0,0.089-0.574,0.089-0.761V96.924
			C358.165,96.094,357.493,95.423,356.665,95.423z M22.426,153.907c19.51,10.288,53.875,28.817,64.829,37.338
			c15.979,12.431,23.706,40.896,26.889,56.758L22.426,153.907z M244.014,248.008L244.014,248.008
			c3.186-15.863,10.913-44.333,26.896-56.763c10.939-8.511,45.312-27.048,64.827-37.34h0.002L244.014,248.008z M350.764,137.731
			c-11.354,5.831-68.788,35.531-84.396,47.675c-20.007,15.562-29.55,61.574-31.142,69.941H122.928
			c-1.59-8.367-11.126-54.379-31.134-69.941c-14.68-11.421-76.194-43.422-84.397-47.672v-34.912h343.367V137.731z"/>
	</g>
</g>
<g>
</g>
<g>
</g>
<g>
</g>
<g>
</g>
<g>
</g>
<g>
</g>
<g>
</g>
<g>
</g>
<g>
</g>
<g>
</g>
<g>
</g>
<g>
</g>
<g>
</g>
<g>
</g>
<g>
</g>
</svg>
