<?xml version="1.0" encoding="iso-8859-1"?>
<!-- Generator: Adobe Illustrator 16.0.0, SVG Export Plug-In . SVG Version: 6.00 Build 0)  -->
<!DOCTYPE svg PUBLIC "-//W3C//DTD SVG 1.1//EN" "http://www.w3.org/Graphics/SVG/1.1/DTD/svg11.dtd">
<svg version="1.1" id="Capa_1" xmlns="http://www.w3.org/2000/svg" xmlns:xlink="http://www.w3.org/1999/xlink" x="0px" y="0px"
	 width="512.936px" height="512.936px" viewBox="0 0 512.936 512.936" style="enable-background:new 0 0 512.936 512.936;"
	 xml:space="preserve">
<g>
	<g>
		<path d="M367.163,474.066h-3.14V317.519l0.023-0.249c0.004-0.229-0.014-0.451-0.045-0.623l-17.066-186.503V3.929
			c0-2.167-1.764-3.929-3.93-3.929h-23.207c-2.166,0-3.93,1.762-3.93,3.929v122.299h-118.8V3.929c0-2.167-1.764-3.929-3.933-3.929
			h-23.205C167.764,0,166,1.762,166,3.929v126.14l-17.074,186.925l-0.01,157.072h-3.143c-2.167,0-3.93,1.764-3.93,3.931v31.004
			c0,2.169,1.763,3.934,3.93,3.934h100.088c2.167,0,3.931-1.765,3.931-3.934v-31.004c0-2.167-1.764-3.931-3.931-3.931h-3.098
			l0.224-93.817c0-6.797,6.048-12.326,13.481-12.326c7.431,0,13.478,5.536,13.478,12.344l0.228,93.801h-3.101
			c-2.166,0-3.93,1.764-3.93,3.931v31.004c0,2.169,1.764,3.934,3.93,3.934h100.089c2.168,0,3.932-1.765,3.932-3.934v-31.004
			C371.094,475.829,369.331,474.066,367.163,474.066z M173.862,63.113V7.861h15.344v55.253L173.862,63.113L173.862,63.113z
			 M176.486,86.284l-0.063,0.08h-2.561V70.973h15.344v15.391h-2.562l-0.064-0.08c-1.247-1.565-3.086-2.463-5.046-2.463
			S177.734,84.719,176.486,86.284z M186.58,94.308l0.064-0.081h2.562v32.001h-15.344V94.227h2.562l0.063,0.08
			c1.245,1.566,3.085,2.466,5.047,2.466C183.493,96.773,185.332,95.874,186.58,94.308z M323.732,63.113V7.861h15.343v55.253
			L323.732,63.113L323.732,63.113z M326.355,86.284l-0.063,0.08h-2.56V70.973h15.343v15.391h-2.562l-0.063-0.081
			c-1.244-1.564-3.082-2.462-5.043-2.462C329.447,83.821,327.605,84.719,326.355,86.284z M336.445,94.309l0.066-0.082h2.562v32.001
			h-15.343V94.227h2.56l0.063,0.081c1.252,1.566,3.092,2.465,5.049,2.465C333.366,96.773,335.204,95.874,336.445,94.309z
			 M319.461,298.82H306.1c-2.168,0-3.93,1.763-3.93,3.929v10.577h-91.403v-10.577c0-2.166-1.764-3.929-3.931-3.929h-13.357
			c-2.166,0-3.929,1.763-3.929,3.929v10.577h-32.584l16.717-179.238h165.574l16.717,179.238h-32.582v-10.577
			C323.391,300.582,321.627,298.82,319.461,298.82z M177.911,321.439c-1.781,10.711-10.175,19.104-20.886,20.883l-0.249,0.043
			v-21.176h21.176L177.911,321.439z M197.409,327.838V306.68h5.496v21.158H197.409z M310.031,327.838V306.68h5.496v21.158H310.031z
			 M235.126,380.242l-0.225,93.823h-78.125V350.318l0.188-0.022c15.146-1.876,27.038-13.769,28.918-28.916l0.023-0.188h3.644v10.579
			c0,2.169,1.763,3.933,3.929,3.933h13.358c2.167,0,3.931-1.764,3.931-3.933v-10.579h91.403v10.579c0,2.169,1.762,3.933,3.93,3.933
			h13.361c2.166,0,3.93-1.764,3.93-3.933v-10.579h3.641l0.023,0.188c1.879,15.149,13.77,27.041,28.92,28.916l0.188,0.022v123.748
			h-78.127l-0.228-93.811c0-11.136-9.572-20.195-21.339-20.195C244.701,360.061,235.126,369.115,235.126,380.242z M334.984,321.189
			h21.179v21.176l-0.25-0.043c-10.711-1.778-19.105-10.172-20.888-20.881L334.984,321.189z M241.931,481.928v23.143h-92.225v-23.143
			H241.931z M363.232,481.928v23.143h-92.229v-23.143H363.232z"/>
		<path d="M331.564,257.732V164.92c0-2.169-1.764-3.933-3.93-3.933H185.302c-2.168,0-3.932,1.764-3.932,3.933v92.812
			c0,2.168,1.764,3.933,3.932,3.933h142.333C329.801,261.664,331.564,259.9,331.564,257.732z M189.234,253.803v-84.955h75.047
			v84.955H189.234z M272.145,197.607v-28.759h51.56v28.759H272.145z M272.145,253.803v-48.335h51.56v48.335H272.145z"/>
	</g>
</g>
<g>
</g>
<g>
</g>
<g>
</g>
<g>
</g>
<g>
</g>
<g>
</g>
<g>
</g>
<g>
</g>
<g>
</g>
<g>
</g>
<g>
</g>
<g>
</g>
<g>
</g>
<g>
</g>
<g>
</g>
</svg>
