<?xml version="1.0" encoding="iso-8859-1"?>
<!-- Generator: Adobe Illustrator 16.0.0, SVG Export Plug-In . SVG Version: 6.00 Build 0)  -->
<!DOCTYPE svg PUBLIC "-//W3C//DTD SVG 1.1//EN" "http://www.w3.org/Graphics/SVG/1.1/DTD/svg11.dtd">
<svg version="1.1" id="Capa_1" xmlns="http://www.w3.org/2000/svg" xmlns:xlink="http://www.w3.org/1999/xlink" x="0px" y="0px"
	 width="322px" height="322px" viewBox="0 0 322 322" style="enable-background:new 0 0 322 322;" xml:space="preserve">
<g>
	<g>
		<path d="M81.499,0C51.22,0.004,18.867,61.882,18.692,95.157c-0.071,13.38,3.377,29.127,6.711,44.354
			c2.809,12.826,5.461,24.941,5.523,33.75c0.149,21.343-3.021,85.09-3.054,85.731c-0.003,0.065-0.005,0.133-0.005,0.199
			c0,17.317,4.791,32.963,13.489,44.052C50.982,315.515,64.863,322,81.5,322s30.518-6.485,40.143-18.756
			c8.698-11.089,13.489-26.733,13.489-44.052c0-0.066-0.002-0.134-0.005-0.199c-0.032-0.643-3.203-64.388-3.054-85.731
			c0.059-8.31,2.495-18.812,5.075-29.935c3.391-14.613,7.233-31.177,7.159-48.166C144.163,61.879,111.822-0.005,81.499,0z
			 M29.872,119.543l-1.588-11.823L77.5,86.817v11.501L29.872,119.543z M129.355,141.52c-2.683,11.565-5.217,22.489-5.282,31.686
			c-0.149,21.347,2.868,82.271,3.059,86.086C127.102,284.552,115.138,314,81.5,314s-45.602-29.448-45.632-54.709
			c0.19-3.816,3.208-64.739,3.059-86.086c-0.068-9.646-2.808-22.157-5.708-35.404c-0.729-3.329-1.462-6.685-2.162-10.027
			l50.452-22.484l50.925,22.464C131.45,132.487,130.382,137.096,129.355,141.52z M133.548,119.501L85.5,98.307v-11.49l49.296,20.937
			L133.548,119.501z M136.222,99.668L85.5,78.125V64.24c0-2.209-1.791-4-4-4s-4,1.791-4,4v13.885l-50.694,21.53
			c-0.078-1.52-0.121-3.008-0.113-4.456C26.863,62.85,58.042,8.003,81.502,8c23.494-0.004,54.667,54.843,54.807,87.196
			C136.314,96.687,136.277,98.178,136.222,99.668z"/>
		<path d="M68.149,212.055v65.46c0,2.209,1.791,4,4,4h18.702c2.209,0,4-1.791,4-4v-65.46c0-2.209-1.791-4-4-4H72.149
			C69.94,208.055,68.149,209.846,68.149,212.055z M76.149,216.055h10.702v57.46H76.149V216.055z"/>
		<path d="M296.597,139.512c3.334-15.228,6.782-30.975,6.711-44.354c-0.175-33.275-32.526-95.153-62.807-95.157
			c-30.323-0.005-62.664,61.879-62.809,95.161c-0.074,16.989,3.769,33.553,7.158,48.166c2.58,11.121,5.018,21.625,5.075,29.936
			c0.149,21.344-3.021,85.089-3.054,85.73c-0.003,0.065-0.005,0.133-0.005,0.199c0,17.317,4.791,32.963,13.489,44.052
			C209.983,315.515,223.864,322,240.5,322s30.518-6.485,40.143-18.756c8.698-11.089,13.489-26.733,13.489-44.052
			c0-0.066-0.002-0.134-0.005-0.199c-0.032-0.643-3.203-64.39-3.054-85.731C291.136,164.453,293.789,152.338,296.597,139.512z
			 M185.693,95.196C185.833,62.842,217.004,7.996,240.5,8c23.46,0.003,54.639,54.851,54.809,87.199
			c0.009,1.448-0.034,2.938-0.112,4.456l-50.694-21.53V64.24c0-2.209-1.791-4-4-4s-4,1.791-4,4v13.885L185.78,99.668
			C185.723,98.178,185.686,96.687,185.693,95.196z M187.205,107.753L236.5,86.816v11.49L188.453,119.5L187.205,107.753z
			 M288.782,137.801c-2.9,13.247-5.641,25.76-5.708,35.404c-0.149,21.347,2.868,82.27,3.059,86.086
			C286.102,284.552,274.138,314,240.5,314s-45.602-29.448-45.632-54.709c0.189-3.816,3.208-64.739,3.059-86.086
			c-0.064-9.196-2.6-20.12-5.282-31.686c-1.025-4.424-2.095-9.032-3.077-13.767l50.925-22.464l50.452,22.484
			C290.244,131.116,289.511,134.472,288.782,137.801z M244.5,98.317V86.816l49.216,20.903l-1.588,11.823L244.5,98.317z"/>
		<path d="M227.149,212.055v65.46c0,2.209,1.791,4,4,4h18.701c2.209,0,4-1.791,4-4v-65.46c0-2.209-1.791-4-4-4h-18.701
			C228.94,208.055,227.149,209.846,227.149,212.055z M235.149,216.055h10.701v57.46h-10.701V216.055z"/>
	</g>
</g>
<g>
</g>
<g>
</g>
<g>
</g>
<g>
</g>
<g>
</g>
<g>
</g>
<g>
</g>
<g>
</g>
<g>
</g>
<g>
</g>
<g>
</g>
<g>
</g>
<g>
</g>
<g>
</g>
<g>
</g>
</svg>
