<?xml version="1.0" encoding="iso-8859-1"?>
<!-- Generator: Adobe Illustrator 16.0.0, SVG Export Plug-In . SVG Version: 6.00 Build 0)  -->
<!DOCTYPE svg PUBLIC "-//W3C//DTD SVG 1.1//EN" "http://www.w3.org/Graphics/SVG/1.1/DTD/svg11.dtd">
<svg version="1.1" id="Capa_1" xmlns="http://www.w3.org/2000/svg" xmlns:xlink="http://www.w3.org/1999/xlink" x="0px" y="0px"
	 width="330px" height="330px" viewBox="0 0 330 330" style="enable-background:new 0 0 330 330;" xml:space="preserve">
<g>
	<g>
		<path d="M307.613,142.94c3.418-15.609,6.95-31.75,6.879-45.459c-0.054-10.116-2.961-23.072-8.188-36.481v-0.001
			C294.85,31.623,272.404,0.004,250.186,0.001c-22.229,0-44.678,31.611-56.127,60.982c-5.229,13.416-8.137,26.379-8.18,36.502
			c-0.076,17.408,3.862,34.388,7.338,49.367c2.646,11.41,5.147,22.187,5.207,30.722c0.154,21.891-3.098,87.264-3.131,87.922
			c-0.002,0.063-0.004,0.133-0.004,0.197c0,17.737,4.903,33.76,13.811,45.11c9.851,12.56,24.058,19.196,41.088,19.196
			c17.026,0,31.233-6.639,41.084-19.195c8.905-11.354,13.812-27.375,13.812-45.11c0-0.064-0.002-0.134-0.006-0.197
			c-0.033-0.658-3.285-66.031-3.132-87.922C302.009,168.529,304.732,156.1,307.613,142.94z M250.185,8
			c17.066,0.002,37.188,27.543,47.949,54.101c0,0,0.188,0.514,0.467,1.284l-46.263-46.262c-0.893-0.892-2.101-1.257-3.265-1.129
			c-1.164-0.127-2.372,0.237-3.266,1.129l-42.595,42.595C214.181,33.926,233.617,8,250.185,8z M249.074,25.173l46.907,46.907
			l-33.5,28.367c-0.897,0.76-1.415,1.876-1.415,3.053v4.5h-21.761v-4.5c0-1.176-0.518-2.292-1.414-3.053L203.186,71.06
			L249.074,25.173z M261.066,131.5v7.5h-21.761v-7.5H261.066z M239.306,123.5V116h21.761v7.5H239.306z M261.066,147v7.5h-21.761V147
			H261.066z M261.066,162.5v7.5h-21.761v-7.5H261.066z M261.066,178v7.5h-21.761V178H261.066z M261.066,193.5v13.627h-21.761V193.5
			H261.066z M271.186,215.127c3.86,0,7,3.141,7,7v61.66c0,3.859-3.14,7-7,7h-42c-3.859,0-7-3.141-7-7v-61.66c0-3.859,3.141-7,7-7
			H271.186z M299.798,141.229c-2.976,13.58-5.783,26.408-5.853,36.289c-0.153,21.896,2.942,84.392,3.138,88.275
			C297.052,291.746,284.757,322,250.188,322c-34.57,0-46.865-30.254-46.896-56.207c0.192-3.885,3.289-66.383,3.135-88.275
			c-0.065-9.42-2.664-20.617-5.414-32.473c-3.375-14.554-7.203-31.049-7.131-47.524c0.025-6.004,1.215-13.211,3.395-20.982
			l34.03,28.817V108h-6.12c-2.209,0-4,1.791-4,4s1.791,4,4,4h6.12v7.5h-6.12c-2.209,0-4,1.791-4,4s1.791,4,4,4h6.12v7.5h-6.12
			c-2.209,0-4,1.791-4,4s1.791,4,4,4h6.12v7.5h-6.12c-2.209,0-4,1.791-4,4s1.791,4,4,4h6.12v7.5h-6.12c-2.209,0-4,1.791-4,4
			s1.791,4,4,4h6.12v7.5h-6.12c-2.209,0-4,1.791-4,4s1.791,4,4,4h6.12v13.627h-2.12c-8.271,0-15,6.729-15,15v61.66
			c0,8.271,6.729,15,15,15h42c8.271,0,15-6.729,15-15v-61.66c0-8.271-6.729-15-15-15h-2.119V193.5h6.119c2.21,0,4-1.791,4-4
			s-1.79-4-4-4h-6.119V178h6.119c2.21,0,4-1.791,4-4s-1.79-4-4-4h-6.119v-7.5h6.119c2.21,0,4-1.791,4-4s-1.79-4-4-4h-6.119V147
			h6.119c2.21,0,4-1.791,4-4s-1.79-4-4-4h-6.119v-7.5h6.119c2.21,0,4-1.791,4-4s-1.79-4-4-4h-6.119V116h6.119c2.21,0,4-1.791,4-4
			s-1.79-4-4-4h-6.119v-2.646l34.022-28.81c2.181,7.771,3.374,14.977,3.404,20.979C306.56,110.345,303.123,126.045,299.798,141.229z
			"/>
		<path d="M240.874,281.67h18.625c2.209,0,4-1.791,4-4v-49.426c0-2.209-1.791-4-4-4h-18.625c-2.209,0-4,1.791-4,4v49.426
			C236.874,279.879,238.665,281.67,240.874,281.67z M244.874,232.244h10.625v41.426h-10.625V232.244z"/>
		<path d="M79.813,0C57.597,0.003,35.149,31.622,23.696,60.998V61c-5.227,13.409-8.135,26.365-8.188,36.481
			c-0.072,13.709,3.461,29.85,6.879,45.459c2.881,13.16,5.604,25.589,5.667,34.634c0.153,21.891-3.099,87.264-3.132,87.922
			c-0.004,0.063-0.006,0.133-0.006,0.197c0,17.735,4.906,33.758,13.812,45.11c9.85,12.558,24.057,19.195,41.084,19.195
			c17.029,0,31.236-6.637,41.086-19.195c8.907-11.352,13.811-27.373,13.811-45.11c0-0.064-0.002-0.134-0.004-0.197
			c-0.033-0.658-3.285-66.031-3.131-87.922c0.06-8.535,2.562-19.312,5.207-30.722c3.476-14.979,7.414-31.959,7.338-49.367
			c-0.043-10.124-2.95-23.086-8.18-36.502C124.492,31.611,102.042,0,79.813,0z M90.694,131.5v7.5h-21.76v-7.5H90.694z M68.936,123.5
			V116h21.76v7.5H68.936z M90.694,147v7.5h-21.76V147H90.694z M90.694,162.5v7.5h-21.76v-7.5H90.694z M90.694,178v7.5h-21.76V178
			H90.694z M90.694,193.5v13.627h-21.76V193.5H90.694z M100.814,215.127c3.86,0,7,3.141,7,7v61.66c0,3.859-3.14,7-7,7h-42
			c-3.86,0-7-3.141-7-7v-61.66c0-3.859,3.14-7,7-7H100.814z M90.694,103.5v4.5h-21.76v-4.5c0-1.176-0.518-2.292-1.415-3.053
			L34.02,72.08l46.907-46.907l45.887,45.887l-34.705,29.387C91.212,101.208,90.694,102.324,90.694,103.5z M31.867,62.102
			C42.627,35.544,62.75,8.003,79.815,8.001c16.568,0,36.004,25.925,46.971,51.718L84.191,17.124
			c-0.893-0.892-2.101-1.257-3.265-1.129c-1.164-0.127-2.372,0.237-3.265,1.129L31.398,63.386
			C31.681,62.616,31.867,62.102,31.867,62.102z M128.988,145.044c-2.75,11.856-5.348,23.054-5.414,32.474
			c-0.154,21.893,2.942,84.391,3.135,88.274C126.68,291.746,114.384,322,79.813,322s-46.865-30.254-46.896-56.207
			c0.194-3.885,3.291-66.381,3.138-88.275c-0.069-9.881-2.877-22.708-5.853-36.289c-3.324-15.184-6.762-30.884-6.695-43.705
			c0.03-6.002,1.225-13.208,3.404-20.979l34.023,28.81V108h-6.12c-2.209,0-4,1.791-4,4s1.791,4,4,4h6.12v7.5h-6.12
			c-2.209,0-4,1.791-4,4s1.791,4,4,4h6.12v7.5h-6.12c-2.209,0-4,1.791-4,4s1.791,4,4,4h6.12v7.5h-6.12c-2.209,0-4,1.791-4,4
			s1.791,4,4,4h6.12v7.5h-6.12c-2.209,0-4,1.791-4,4s1.791,4,4,4h6.12v7.5h-6.12c-2.209,0-4,1.791-4,4s1.791,4,4,4h6.12v13.627
			h-2.12c-8.271,0-15,6.729-15,15v61.66c0,8.271,6.729,15,15,15h42c8.271,0,15-6.729,15-15v-61.66c0-8.271-6.729-15-15-15h-2.12
			V193.5h6.12c2.209,0,4-1.791,4-4s-1.791-4-4-4h-6.12V178h6.12c2.209,0,4-1.791,4-4s-1.791-4-4-4h-6.12v-7.5h6.12
			c2.209,0,4-1.791,4-4s-1.791-4-4-4h-6.12V147h6.12c2.209,0,4-1.791,4-4s-1.791-4-4-4h-6.12v-7.5h6.12c2.209,0,4-1.791,4-4
			s-1.791-4-4-4h-6.12V116h6.12c2.209,0,4-1.791,4-4s-1.791-4-4-4h-6.12v-2.646l34.031-28.817
			c2.179,7.771,3.368,14.978,3.394,20.982C136.191,113.996,132.363,130.491,128.988,145.044z"/>
		<path d="M70.502,281.67h18.625c2.209,0,4-1.791,4-4v-49.426c0-2.209-1.791-4-4-4H70.502c-2.209,0-4,1.791-4,4v49.426
			C66.502,279.879,68.293,281.67,70.502,281.67z M74.502,232.244h10.625v41.426H74.502V232.244z"/>
	</g>
</g>
<g>
</g>
<g>
</g>
<g>
</g>
<g>
</g>
<g>
</g>
<g>
</g>
<g>
</g>
<g>
</g>
<g>
</g>
<g>
</g>
<g>
</g>
<g>
</g>
<g>
</g>
<g>
</g>
<g>
</g>
</svg>
