<?xml version="1.0" encoding="iso-8859-1"?>
<!-- Generator: Adobe Illustrator 16.0.0, SVG Export Plug-In . SVG Version: 6.00 Build 0)  -->
<!DOCTYPE svg PUBLIC "-//W3C//DTD SVG 1.1//EN" "http://www.w3.org/Graphics/SVG/1.1/DTD/svg11.dtd">
<svg version="1.1" id="Capa_1" xmlns="http://www.w3.org/2000/svg" xmlns:xlink="http://www.w3.org/1999/xlink" x="0px" y="0px"
	 width="511.64px" height="511.64px" viewBox="0 0 511.64 511.64" style="enable-background:new 0 0 511.64 511.64;"
	 xml:space="preserve">
<g>
	<path d="M385.773,177.685c8.332-25.437,10.07-31.08,10.338-33.615c0.02-0.203,0.029-0.385,0.029-0.547
		c0-3.919-0.377-7.913-1.113-11.827L382.81,4.962c-0.289-2.998-2.896-5.205-5.99-4.938c-3.012,0.29-5.23,2.978-4.939,5.991
		l10.164,105.441H266.32h-21H129.592L139.758,6.016c0.141-1.46-0.296-2.887-1.229-4.019s-2.25-1.832-3.711-1.973
		c-3.06-0.278-5.702,1.934-5.99,4.938l-12.21,126.689c-0.742,3.953-1.119,7.946-1.119,11.869c0,0.162,0.01,0.344,0.035,0.614
		c0.26,2.461,1.996,8.104,10.328,33.548c5.086,15.522,12.771,38.98,13.207,42.495c-0.027,41.855-20.034,155.573-20.062,155.948
		c-0.041,0.221-0.024,0.663-0.024,0.663c0.053,0.949,0.374,1.895,0.986,2.713l97.397,130.135c0.944,1.263,2.427,2.004,4.003,2.004
		h32.889h3.119h32.894c1.574,0,3.059-0.741,4.002-2.004l97.396-130.135c0.613-0.818,0.934-1.764,0.986-2.713
		c0,0,0.016-0.384-0.02-0.574c-0.027-0.465-20.045-113.795-20.074-155.974c0.438-3.551,8.078-26.885,13.135-42.325L385.773,177.685z
		 M250.319,121.457h11v13.833h-11V121.457z M240.319,121.457v18.833c0,2.761,2.239,5,5,5h21c2.762,0,5-2.239,5-5v-18.833h96.172
		l-111.729,58.04l-117.433-58.04H240.319z M375.474,173.839l-0.143,0.427c-10.316,31.501-13.754,42.532-13.754,45.78
		c0,43.063,13.037,119.232,19.908,156.372L287.765,501.64h-30.39h-3.119h-30.386l-93.728-125.231
		c6.913-37.322,19.904-113.243,19.904-156.362c0-3.247-3.435-14.278-13.751-45.778l-0.06-0.177
		c-4.007-12.238-8.985-27.447-9.722-30.737l1.526-15.828l122.775,60.682v50.674c0,2.761,2.239,5,5,5s5-2.239,5-5V188.14
		l122.482-63.626l1.816,18.839C384.388,146.618,379.449,161.702,375.474,173.839z"/>
</g>
<g>
</g>
<g>
</g>
<g>
</g>
<g>
</g>
<g>
</g>
<g>
</g>
<g>
</g>
<g>
</g>
<g>
</g>
<g>
</g>
<g>
</g>
<g>
</g>
<g>
</g>
<g>
</g>
<g>
</g>
</svg>
