<?xml version="1.0" encoding="iso-8859-1"?>
<!-- Generator: Adobe Illustrator 16.0.0, SVG Export Plug-In . SVG Version: 6.00 Build 0)  -->
<!DOCTYPE svg PUBLIC "-//W3C//DTD SVG 1.1//EN" "http://www.w3.org/Graphics/SVG/1.1/DTD/svg11.dtd">
<svg version="1.1" id="Capa_1" xmlns="http://www.w3.org/2000/svg" xmlns:xlink="http://www.w3.org/1999/xlink" x="0px" y="0px"
	 width="342.104px" height="342.104px" viewBox="0 0 342.104 342.104" style="enable-background:new 0 0 342.104 342.104;"
	 xml:space="preserve">
<g>
	<path d="M338.098,22.499H4.005C1.797,22.499,0,24.296,0,26.504V315.6c0,2.208,1.797,4.005,4.005,4.005h145.258
		c1.055,0,2.087-0.428,2.832-1.173c0.756-0.754,1.173-1.761,1.173-2.836c0,0-0.13-155.714-0.13-156.519
		c0-9.878,8.036-17.915,17.914-17.915s17.915,8.037,17.915,17.915c0,0.805-0.132,156.519-0.132,156.519
		c-0.001,1.058,0.427,2.092,1.172,2.834c0.745,0.747,1.777,1.175,2.833,1.175h145.258c2.209,0,4.006-1.797,4.006-4.005V26.504
		C342.104,24.296,340.307,22.499,338.098,22.499z M197.514,34.186c-2.208,0-4.004,1.797-4.004,4.006v14.694h-44.916V38.192
		c0-2.209-1.797-4.006-4.005-4.006s-4.005,1.797-4.005,4.006v14.694H8.011V30.51h326.082v22.376H201.521V38.192
		C201.521,35.983,199.723,34.186,197.514,34.186z M293.771,198.81v80.143c0,2.208,1.797,4.005,4.006,4.005h36.316v28.638H196.85
		l0.066-79.285c0.029-37.185,0.061-72.849,0.061-73.232c0-14.295-11.63-25.925-25.925-25.925s-25.925,11.63-25.925,25.925
		c0,0.727,0.106,128.13,0.127,152.518H8.011v-28.638h36.315c2.209,0,4.006-1.797,4.006-4.005V198.81
		c0-2.208-1.797-4.005-4.006-4.005H8.011V60.898h132.573v32.727c0,2.208,1.797,4.005,4.005,4.005s4.005-1.797,4.005-4.005V60.898
		h44.916v32.727c0,2.208,1.796,4.005,4.004,4.005c2.209,0,4.007-1.797,4.007-4.005V60.898h132.572v133.907h-36.316
		C295.567,194.805,293.771,196.602,293.771,198.81z M8.011,219.85v-17.034h32.311v17.034H8.011z M8.011,274.948V227.86h32.311
		v47.088H8.011z M334.093,227.86v47.088h-32.311V227.86H334.093z M334.093,202.815v17.034h-32.311v-17.034H334.093z"/>
</g>
<g>
</g>
<g>
</g>
<g>
</g>
<g>
</g>
<g>
</g>
<g>
</g>
<g>
</g>
<g>
</g>
<g>
</g>
<g>
</g>
<g>
</g>
<g>
</g>
<g>
</g>
<g>
</g>
<g>
</g>
</svg>
